#tb 0: 1/25
#media_type 0: video
#codec_id 0: rawvideo
#dimensions 0: 416x240
#sar 0: 0/1
0,          0,          0,        1,   299520, 0xa3f96d63
0,          1,          1,        1,   299520, 0x5f788f3f
0,          2,          2,        1,   299520, 0x41c7d0ae
0,          3,          3,        1,   299520, 0x14a9175c
0,          4,          4,        1,   299520, 0x5215ed5f
0,          5,          5,        1,   299520, 0xffa5ab17
0,          6,          6,        1,   299520, 0x7d179b2b
0,          7,          7,        1,   299520, 0x87280332
0,          8,          8,        1,   299520, 0xca5e278f
0,          9,          9,        1,   299520, 0x89d59325
0,         10,         10,        1,   299520, 0x6593cfa5
0,         11,         11,        1,   299520, 0x216ce552
0,         12,         12,        1,   299520, 0x4494f2ac
0,         13,         13,        1,   299520, 0xc9aafeb4
0,         14,         14,        1,   299520, 0xe93a43ab
0,         15,         15,        1,   299520, 0x89bdba99
0,         16,         16,        1,   299520, 0xdc529079
0,         17,         17,        1,   299520, 0xfbc29de7
0,         18,         18,        1,   299520, 0xa8c6c853
0,         19,         19,        1,   299520, 0xd552dc1f
0,         20,         20,        1,   299520, 0x60a7d5d9
0,         21,         21,        1,   299520, 0x4b784987
0,         22,         22,        1,   299520, 0xec9bd2a0
0,         23,         23,        1,   299520, 0x71e1d437
0,         24,         24,        1,   299520, 0x5776a225
0,         25,         25,        1,   299520, 0x01598543
0,         26,         26,        1,   299520, 0x8abb1f7b
0,         27,         27,        1,   299520, 0xa3a0bb58
0,         28,         28,        1,   299520, 0x4a718127
0,         29,         29,        1,   299520, 0x6b1647bc
0,         30,         30,        1,   299520, 0x7b653009
0,         31,         31,        1,   299520, 0xca15d4be
0,         32,         32,        1,   299520, 0xf8075689
0,         33,         33,        1,   299520, 0x2717f2e6
0,         34,         34,        1,   299520, 0x53ad6267
0,         35,         35,        1,   299520, 0x29fedd49
0,         36,         36,        1,   299520, 0x4e8aa5db
0,         37,         37,        1,   299520, 0xca316c94
0,         38,         38,        1,   299520, 0x8071fd57
0,         39,         39,        1,   299520, 0xc9915cd3
0,         40,         40,        1,   299520, 0xab335447
0,         41,         41,        1,   299520, 0xf733a390
0,         42,         42,        1,   299520, 0x1fa14afb
0,         43,         43,        1,   299520, 0xe5d7ae71
0,         44,         44,        1,   299520, 0xb48c2ee6
0,         45,         45,        1,   299520, 0xe288ebcc
0,         46,         46,        1,   299520, 0xa4000bdd
0,         47,         47,        1,   299520, 0xf3fdee3a
